<svg version="1.1" id="Layer_1" xmlns="http://www.w3.org/2000/svg" xmlns:xlink="http://www.w3.org/1999/xlink" x="0px" y="0px"
	 width="100%" viewBox="109.023 409.259 795.095 209.385" enable-background="new 109.023 409.259 795.095 209.385" xml:space="preserve">
<path fill="#000000" opacity="1.000000" stroke="none" 
	d="
M301.996460,526.430054 
	C302.967316,512.812561 296.670532,500.939880 292.646759,488.572357 
	C290.687714,482.550842 288.309143,477.097748 289.692780,470.313934 
	C291.011902,463.846497 290.405121,457.080627 286.491211,451.079803 
	C280.823944,442.390717 272.204529,439.228973 262.614716,439.205750 
	C256.020935,439.189758 252.164551,436.442688 248.743469,431.374329 
	C246.657501,428.283966 244.059570,424.963043 240.879044,423.294800 
	C231.061203,418.145203 220.353104,417.259308 209.514297,419.131531 
	C197.995071,421.121307 189.284775,426.503662 187.093689,439.117828 
	C185.893707,446.026215 182.310211,451.341248 176.363754,455.151520 
	C174.287903,456.481659 172.417648,458.187195 170.632370,459.906952 
	C162.650833,467.595581 154.215363,473.789032 142.074783,472.099213 
	C134.774490,471.083038 129.142609,474.436035 125.572884,480.913025 
	C121.917664,487.545258 122.738434,494.072876 126.802254,500.143372 
	C130.304352,505.374847 134.189911,510.352203 137.966370,515.396667 
	C141.837173,520.567078 141.143555,526.533691 135.914429,530.420654 
	C128.293411,536.085510 123.338623,543.502686 120.687233,552.562439 
	C117.022766,565.083923 123.479309,577.817078 135.373260,580.488525 
	C139.598557,581.437439 144.201660,580.571228 148.540955,581.182251 
	C153.014893,581.812256 158.596375,581.887329 161.553085,584.566772 
	C169.409668,591.686584 177.996140,597.308838 187.297638,602.222656 
	C198.695969,608.244324 211.183975,610.644287 223.423203,609.633484 
	C246.490356,607.728333 266.634918,598.304260 281.555817,579.850830 
	C293.895020,564.590332 300.795624,547.062927 301.996460,526.430054 
M492.572418,514.062683 
	C496.329926,519.247192 494.748444,523.602234 488.594635,525.016541 
	C480.128601,526.962280 475.701965,524.756226 472.112061,516.867065 
	C469.103638,516.867065 466.139557,516.867065 463.185791,516.867065 
	C463.081970,523.784607 466.501587,529.150208 472.916199,531.768738 
	C479.463165,534.441284 486.255798,534.515137 492.986359,532.568176 
	C500.549408,530.380432 505.147583,524.143555 505.019165,516.727539 
	C504.892670,509.425598 501.466156,505.479706 492.922302,503.059937 
	C488.291992,501.748535 483.406097,501.107117 479.026703,499.243988 
	C476.948822,498.360016 474.405853,495.187500 474.589935,493.296783 
	C474.783203,491.311554 477.688904,488.698120 479.931305,487.972260 
	C486.597443,485.814697 490.786621,488.340332 494.268280,495.529846 
	C497.254730,495.529846 500.191772,495.529846 503.458466,495.529846 
	C503.175812,488.201263 499.851837,483.037476 493.360077,480.785889 
	C489.252380,479.361145 484.580597,478.936737 480.193573,479.074615 
	C471.226013,479.356506 465.092834,484.838318 464.143951,492.541870 
	C463.132294,500.755157 467.268494,506.238312 476.623718,509.057190 
	C481.701324,510.587158 486.786194,512.092834 492.572418,514.062683 
M347.764099,533.764099 
	C351.552948,533.365112 355.470673,533.445618 359.104095,532.468567 
	C366.943359,530.360596 371.114380,524.753784 371.120728,517.307068 
	C371.127197,509.702362 367.620209,505.496216 359.058044,503.031891 
	C354.429016,501.699615 349.732391,500.600616 345.111084,499.243713 
	C342.060455,498.348053 339.763519,496.123871 340.928406,493.004517 
	C341.695404,490.950684 344.099823,488.687347 346.209198,488.104950 
	C353.421417,486.113556 357.384247,488.503418 360.427704,495.569580 
	C363.606293,495.569580 366.691406,495.569580 369.786346,495.569580 
	C369.184448,487.433868 365.498077,481.950592 358.283997,480.189362 
	C353.709564,479.072632 348.662262,478.783447 343.995819,479.400238 
	C336.024933,480.453827 331.086975,486.118256 330.598114,493.284302 
	C330.048187,501.346497 333.585999,506.196259 342.276520,508.909851 
	C346.873871,510.345367 351.763885,511.025269 356.130585,512.938965 
	C358.228119,513.858154 360.922546,517.088013 360.642975,518.840088 
	C360.284058,521.089233 357.542816,523.995605 355.237030,524.709167 
	C347.125061,527.219360 342.126465,524.499329 338.322510,516.716187 
	C335.271118,516.716187 332.327759,516.716187 329.384735,516.716187 
	C329.752563,526.838623 334.624634,531.485901 347.764099,533.764099 
M697.273132,494.131744 
	C687.641235,491.305237 679.605042,495.389343 677.230591,504.916656 
	C676.206421,509.026001 675.767822,513.562317 676.325989,517.735779 
	C678.617676,534.870605 693.987793,537.809204 702.840149,529.053772 
	C703.988708,533.068542 706.038269,533.624268 712.474976,531.694824 
	C712.474976,514.462585 712.474976,497.246429 712.474976,479.828125 
	C709.206543,479.828125 706.259033,479.828125 702.666870,479.828125 
	C702.666870,485.679077 702.666870,491.479248 702.666870,497.936035 
	C700.613159,496.449921 699.305725,495.503845 697.273132,494.131744 
M820.507996,497.501556 
	C820.507996,508.942230 820.507996,520.382874 820.507996,532.264404 
	C824.232300,531.620178 828.513489,534.825439 830.054016,528.970154 
	C839.509216,538.361267 854.083984,533.019958 856.025391,520.487793 
	C856.888123,514.918945 856.854431,508.756073 855.362427,503.380493 
	C852.895081,494.490112 843.003174,490.468872 835.384216,494.226196 
	C833.819397,494.997894 832.434631,496.134796 830.285522,497.552979 
	C830.285522,491.271515 830.285522,485.697937 830.285522,480.129639 
	C826.737793,480.129639 823.711060,480.129639 820.498657,480.129639 
	C820.498657,485.853455 820.498657,491.178314 820.507996,497.501556 
M433.122833,495.622314 
	C432.209534,496.352692 431.296265,497.083069 429.841309,498.246613 
	C429.841309,491.625824 429.841309,485.844818 429.841309,480.124756 
	C426.529510,480.124756 423.459015,480.124756 420.351990,480.124756 
	C420.351990,497.600403 420.351990,514.727051 420.351990,532.135986 
	C423.262390,532.135986 425.999695,532.135986 428.701630,532.135986 
	C429.105194,530.918152 429.470673,529.815308 429.912079,528.483276 
	C437.681519,537.253174 452.105072,535.040466 455.514618,521.903687 
	C456.949768,516.374146 456.815643,509.876251 455.439972,504.300903 
	C452.953674,494.224304 443.226776,490.594604 433.122833,495.622314 
M782.718750,498.306396 
	C781.772583,500.601013 780.826477,502.895630 779.546509,505.999908 
	C784.572876,505.228516 788.665466,507.331085 791.686096,502.409698 
	C792.610535,500.903473 797.387024,501.456543 800.343079,501.713959 
	C801.094482,501.779358 802.381592,505.395966 802.146484,505.560760 
	C800.153748,506.957916 797.959656,508.232208 795.642883,508.962677 
	C792.497986,509.954285 789.031677,510.025421 785.987915,511.217987 
	C780.010437,513.559937 777.348694,519.832214 779.205200,526.053345 
	C780.747253,531.220642 786.323547,534.735352 792.266296,533.512573 
	C795.867371,532.771667 799.224243,530.843201 802.705627,529.442261 
	C804.991394,535.095215 809.783936,531.419739 813.214783,532.196960 
	C812.765564,528.441772 812.148132,525.235474 812.047546,522.013123 
	C811.866028,516.199341 812.566650,510.295715 811.768250,504.587830 
	C811.319031,501.376038 809.321899,497.508270 806.773071,495.639862 
	C801.031921,491.431213 787.838501,491.778839 782.718750,498.306396 
M510.331970,520.104492 
	C513.407104,529.393494 518.634888,533.447205 527.758057,533.616943 
	C536.201904,533.773987 542.062744,529.872070 545.102722,521.789551 
	C541.071472,521.781860 537.505249,520.533691 533.645020,523.960754 
	C531.594421,525.781250 526.683289,525.621033 523.573792,524.675720 
	C520.110168,523.622864 519.064636,519.900269 519.617859,515.906372 
	C528.472168,515.906372 537.089050,515.906372 546.180969,515.906372 
	C545.993652,513.203857 546.055786,510.718536 545.614380,508.326141 
	C543.812195,498.557922 537.128601,492.942108 527.635620,493.020050 
	C518.514404,493.094940 511.438629,499.292511 510.080872,508.892639 
	C509.599548,512.295776 510.095184,515.837097 510.331970,520.104492 
M647.514038,496.265839 
	C646.734436,496.949493 645.954834,497.633148 645.013367,498.458710 
	C644.629883,496.670685 644.336304,495.301941 644.080078,494.107422 
	C640.863831,494.107422 638.064697,494.107422 635.303833,494.107422 
	C635.303833,506.891144 635.303833,519.472961 635.303833,532.136841 
	C638.651672,532.136841 641.710876,532.136841 645.031494,532.136841 
	C645.031494,523.969177 644.890259,516.146423 645.086975,508.332184 
	C645.196533,503.983063 648.292908,501.187256 652.495178,501.212463 
	C656.980530,501.239319 659.139099,503.730560 659.266907,508.110352 
	C659.320374,509.940613 659.342529,511.772308 659.345276,513.603394 
	C659.354492,519.851990 659.348755,526.100647 659.348755,532.338989 
	C663.070557,532.338989 665.865906,532.338989 669.173279,532.338989 
	C669.173279,523.869568 669.093628,515.581604 669.202698,507.296112 
	C669.269470,502.218872 668.558411,497.521027 663.632507,494.847839 
	C658.359436,491.986267 653.112427,492.222626 647.514038,496.265839 
M599.910339,531.771423 
	C602.481201,532.416687 605.019592,533.393555 607.628662,533.649414 
	C618.450623,534.710449 627.100769,527.275574 628.008728,516.358276 
	C629.128845,502.889435 622.354797,493.796356 610.631409,493.032013 
	C601.290833,492.423065 594.051147,497.051971 591.223022,505.441711 
	C587.692078,515.916199 590.744324,525.747375 599.910339,531.771423 
M378.577545,526.654785 
	C383.612335,535.454102 392.446808,536.148315 401.662384,528.368225 
	C401.987152,529.716431 402.301575,531.021790 402.552551,532.063843 
	C405.731873,532.063843 408.479797,532.063843 411.172485,532.063843 
	C411.172485,519.279236 411.172485,506.841370 411.172485,494.203247 
	C408.001923,494.203247 405.057343,494.203247 401.650177,494.203247 
	C401.650177,501.764801 401.768799,509.233948 401.612488,516.697327 
	C401.488678,522.609070 398.566345,525.781921 393.832306,525.653259 
	C389.326874,525.530823 387.166626,522.610229 387.138824,516.460815 
	C387.105255,509.035736 387.130859,501.610321 387.130859,494.268799 
	C383.628021,494.268799 380.749359,494.268799 378.242340,494.268799 
	C378.242340,505.046112 378.242340,515.490662 378.577545,526.654785 
M874.921082,516.510010 
	C877.961365,517.345886 881.133301,517.873535 884.006348,519.100769 
	C887.127197,520.433838 887.317749,524.325623 884.268311,524.994324 
	C880.858215,525.741943 875.302307,526.106812 873.778870,524.183655 
	C870.106934,519.548218 866.279175,520.995972 861.826050,521.087158 
	C862.596252,526.603271 865.142639,530.671326 870.006165,531.832153 
	C874.884277,532.996399 880.193176,533.495300 885.150696,532.909729 
	C891.951477,532.106567 895.923279,527.127380 896.022156,521.208862 
	C896.117615,515.500061 893.080444,512.097107 885.929993,510.030701 
	C882.422058,509.016968 878.812744,508.306488 875.392090,507.065125 
	C874.282898,506.662598 873.253906,505.114563 872.908325,503.887695 
	C872.709412,503.181427 873.936035,501.284760 874.548828,501.272125 
	C877.569641,501.209625 882.118164,500.445038 883.335571,502.048248 
	C886.686829,506.461761 890.418823,504.839142 894.330811,504.819702 
	C893.149658,497.426117 889.344360,494.067810 881.401917,493.128113 
	C873.148254,492.151581 866.251404,495.089661 863.901611,500.735260 
	C862.165527,504.906128 862.231812,509.204590 865.760315,512.230652 
	C868.038818,514.184814 871.323364,514.965942 874.921082,516.510010 
M740.080750,532.490112 
	C751.821655,532.490112 763.562622,532.490112 775.282104,532.490112 
	C775.282104,529.202637 775.282104,526.601990 775.282104,523.444702 
	C766.776550,523.444702 758.534912,523.444702 749.662659,523.444702 
	C749.662659,508.680725 749.662659,494.467163 749.662659,480.295959 
	C745.904541,480.295959 742.799927,480.295959 739.404968,480.295959 
	C739.404968,497.661530 739.404968,514.773254 740.080750,532.490112 
M559.697327,495.007294 
	C549.311768,499.814819 547.656250,518.147461 554.041626,526.887085 
	C558.141785,532.498962 565.698120,534.966003 573.319397,533.033020 
	C579.877991,531.369507 584.241089,526.168701 584.936340,518.958496 
	C582.014160,518.958496 579.108215,518.958496 576.202271,518.958496 
	C576.458496,519.402954 576.714783,519.847412 576.971008,520.291870 
	C574.151978,522.127686 571.478760,525.019470 568.463806,525.435913 
	C566.380737,525.723511 562.840393,523.104858 561.680481,520.882385 
	C559.037598,515.818481 559.381653,510.168304 561.924927,504.988373 
	C564.195801,500.363251 571.120117,499.028015 573.502808,503.205048 
	C576.460327,508.389893 580.355469,507.670898 586.381836,507.226349 
	C584.187439,503.392639 583.028931,499.583282 580.494995,497.301453 
	C574.639343,492.028442 567.599121,491.773926 559.697327,495.007294 
z"/>
<path fill="#091101" opacity="1.000000" stroke="none" 
	d="
M301.996399,526.909424 
	C300.795624,547.062927 293.895020,564.590332 281.555817,579.850830 
	C266.634918,598.304260 246.490356,607.728333 223.423203,609.633484 
	C211.183975,610.644287 198.695969,608.244324 187.297638,602.222656 
	C177.996140,597.308838 169.409668,591.686584 161.553085,584.566772 
	C158.596375,581.887329 153.014893,581.812256 148.540955,581.182251 
	C144.201660,580.571228 139.598557,581.437439 135.373260,580.488525 
	C123.479309,577.817078 117.022766,565.083923 120.687233,552.562439 
	C123.338623,543.502686 128.293411,536.085510 135.914429,530.420654 
	C141.143555,526.533691 141.837173,520.567078 137.966370,515.396667 
	C134.189911,510.352203 130.304352,505.374847 126.802254,500.143372 
	C122.738434,494.072876 121.917664,487.545258 125.572884,480.913025 
	C129.142609,474.436035 134.774490,471.083038 142.074783,472.099213 
	C154.215363,473.789032 162.650833,467.595581 170.632370,459.906952 
	C172.417648,458.187195 174.287903,456.481659 176.363754,455.151520 
	C182.310211,451.341248 185.893707,446.026215 187.093689,439.117828 
	C189.284775,426.503662 197.995071,421.121307 209.514297,419.131531 
	C220.353104,417.259308 231.061203,418.145203 240.879044,423.294800 
	C244.059570,424.963043 246.657501,428.283966 248.743469,431.374329 
	C252.164551,436.442688 256.020935,439.189758 262.614716,439.205750 
	C272.204529,439.228973 280.823944,442.390717 286.491211,451.079803 
	C290.405121,457.080627 291.011902,463.846497 289.692780,470.313934 
	C288.309143,477.097748 290.687714,482.550842 292.646759,488.572357 
	C296.670532,500.939880 302.967316,512.812561 301.996399,526.909424 
M261.901001,450.191101 
	C260.703766,447.042938 258.710114,448.335632 256.643585,449.132599 
	C250.866608,451.360535 246.968155,449.977814 243.028030,445.340118 
	C241.643936,443.710907 239.084320,443.080414 236.902084,441.183014 
	C236.310974,438.933563 235.719879,436.684082 235.869202,434.240784 
	C237.690598,431.963867 237.574921,431.616394 234.501541,430.317749 
	C226.636185,426.994385 218.422333,427.500275 210.171738,427.962769 
	C204.487488,428.281403 197.497696,433.587433 197.053665,439.354919 
	C196.156326,451.010498 186.172943,456.257660 180.135513,464.218048 
	C177.433029,467.781219 172.542038,469.643127 169.651306,473.115509 
	C166.123886,477.352692 161.960800,480.179474 157.163223,482.572052 
	C155.734955,483.284332 155.029877,485.446747 153.110931,487.108612 
	C149.241837,487.202881 145.629028,487.618988 142.344757,484.144287 
	C139.653610,481.297119 134.137451,483.536652 133.712677,487.510864 
	C133.478027,489.706177 134.476608,492.969940 136.100403,494.230042 
	C139.367859,496.765778 142.600815,495.095551 145.836441,491.757996 
	C146.084442,491.610931 146.332458,491.463837 147.332397,491.081726 
	C148.648544,491.101044 149.964676,491.120361 151.156494,492.048737 
	C151.405350,493.538452 151.654205,495.028198 151.149170,496.414124 
	C147.653748,495.939545 144.743622,497.589020 144.322952,500.699341 
	C144.017471,502.957916 146.033371,505.530396 147.022324,508.699860 
	C147.452591,509.725494 147.593643,511.128082 148.359787,511.715973 
	C153.551544,515.699768 154.042007,521.309143 153.514709,527.583313 
	C149.370865,529.604919 148.486862,532.857605 149.124725,537.005005 
	C147.650101,537.093567 145.823257,536.659851 144.768677,537.371155 
	C141.911621,539.298218 136.043121,538.541809 137.107147,545.292236 
	C134.653900,548.813538 136.809647,551.841003 137.653000,555.222351 
	C137.425247,555.713257 137.197510,556.204102 136.187531,556.750977 
	C134.046402,558.465759 131.132416,559.811523 130.068100,562.040527 
	C129.475662,563.281250 131.587646,567.267151 133.156006,567.730469 
	C135.279892,568.357971 138.044754,566.762695 140.547897,566.177673 
	C142.352753,565.755676 144.179230,565.426208 146.001724,565.843689 
	C145.708466,569.377747 148.034058,570.531555 150.883911,570.907898 
	C152.850510,571.167603 154.976654,570.598755 156.852371,571.087524 
	C160.662460,572.080383 165.522812,570.701538 167.899719,575.261414 
	C175.403839,589.657654 189.446198,595.414856 203.380402,599.548828 
	C214.641052,602.889587 226.851562,602.103516 238.626404,598.077271 
	C249.113083,594.491516 259.145233,590.598145 267.018860,582.458557 
	C271.038605,578.302979 275.662750,574.629028 279.119751,570.060852 
	C282.642151,565.406311 285.596588,560.139893 287.825439,554.739319 
	C290.080536,549.275146 290.488129,543.024353 292.902435,537.656677 
	C295.545532,531.780212 295.847412,525.868225 294.374725,520.158691 
	C291.583649,509.338013 288.019897,498.703339 284.449036,488.101898 
	C282.241364,481.547394 279.428375,475.196777 277.100952,468.147186 
	C279.012878,465.972839 278.857086,464.065948 276.511200,462.257782 
	C271.647644,458.509186 266.839569,454.688660 261.901001,450.191101 
z"/>
<path fill="#F6F5F4" opacity="1.000000" stroke="none" 
	d="
M492.220093,513.836060 
	C486.786194,512.092834 481.701324,510.587158 476.623718,509.057190 
	C467.268494,506.238312 463.132294,500.755157 464.143951,492.541870 
	C465.092834,484.838318 471.226013,479.356506 480.193573,479.074615 
	C484.580597,478.936737 489.252380,479.361145 493.360077,480.785889 
	C499.851837,483.037476 503.175812,488.201263 503.458466,495.529846 
	C500.191772,495.529846 497.254730,495.529846 494.268280,495.529846 
	C490.786621,488.340332 486.597443,485.814697 479.931305,487.972260 
	C477.688904,488.698120 474.783203,491.311554 474.589935,493.296783 
	C474.405853,495.187500 476.948822,498.360016 479.026703,499.243988 
	C483.406097,501.107117 488.291992,501.748535 492.922302,503.059937 
	C501.466156,505.479706 504.892670,509.425598 505.019165,516.727539 
	C505.147583,524.143555 500.549408,530.380432 492.986359,532.568176 
	C486.255798,534.515137 479.463165,534.441284 472.916199,531.768738 
	C466.501587,529.150208 463.081970,523.784607 463.185791,516.867065 
	C466.139557,516.867065 469.103638,516.867065 472.112061,516.867065 
	C475.701965,524.756226 480.128601,526.962280 488.594635,525.016541 
	C494.748444,523.602234 496.329926,519.247192 492.220093,513.836060 
z"/>
<path fill="#F6F5F4" opacity="1.000000" stroke="none" 
	d="
M347.322205,533.724304 
	C334.624634,531.485901 329.752563,526.838623 329.384735,516.716187 
	C332.327759,516.716187 335.271118,516.716187 338.322510,516.716187 
	C342.126465,524.499329 347.125061,527.219360 355.237030,524.709167 
	C357.542816,523.995605 360.284058,521.089233 360.642975,518.840088 
	C360.922546,517.088013 358.228119,513.858154 356.130585,512.938965 
	C351.763885,511.025269 346.873871,510.345367 342.276520,508.909851 
	C333.585999,506.196259 330.048187,501.346497 330.598114,493.284302 
	C331.086975,486.118256 336.024933,480.453827 343.995819,479.400238 
	C348.662262,478.783447 353.709564,479.072632 358.283997,480.189362 
	C365.498077,481.950592 369.184448,487.433868 369.786346,495.569580 
	C366.691406,495.569580 363.606293,495.569580 360.427704,495.569580 
	C357.384247,488.503418 353.421417,486.113556 346.209198,488.104950 
	C344.099823,488.687347 341.695404,490.950684 340.928406,493.004517 
	C339.763519,496.123871 342.060455,498.348053 345.111084,499.243713 
	C349.732391,500.600616 354.429016,501.699615 359.058044,503.031891 
	C367.620209,505.496216 371.127197,509.702362 371.120728,517.307068 
	C371.114380,524.753784 366.943359,530.360596 359.104095,532.468567 
	C355.470673,533.445618 351.552948,533.365112 347.322205,533.724304 
z"/>
<path fill="#F6F5F4" opacity="1.000000" stroke="none" 
	d="
M697.635742,494.344788 
	C699.305725,495.503845 700.613159,496.449921 702.666870,497.936035 
	C702.666870,491.479248 702.666870,485.679077 702.666870,479.828125 
	C706.259033,479.828125 709.206543,479.828125 712.474976,479.828125 
	C712.474976,497.246429 712.474976,514.462585 712.474976,531.694824 
	C706.038269,533.624268 703.988708,533.068542 702.840149,529.053772 
	C693.987793,537.809204 678.617676,534.870605 676.325989,517.735779 
	C675.767822,513.562317 676.206421,509.026001 677.230591,504.916656 
	C679.605042,495.389343 687.641235,491.305237 697.635742,494.344788 
M703.004395,514.346069 
	C702.724121,512.056824 702.662598,509.713684 702.114441,507.490540 
	C701.200562,503.783905 698.890015,501.262939 694.856750,501.137024 
	C690.677429,501.006561 687.587646,503.241547 686.837891,507.175903 
	C686.115173,510.968750 686.032776,515.071960 686.648865,518.880310 
	C687.307068,522.949097 690.250427,525.696960 694.651428,525.710754 
	C699.195862,525.725098 701.347900,522.639771 702.395691,518.619873 
	C702.686035,517.505920 702.782715,516.341431 703.004395,514.346069 
z"/>
<path fill="#9FEC49" opacity="1.000000" stroke="none" 
	d="
M820.503296,497.002380 
	C820.498657,491.178314 820.498657,485.853455 820.498657,480.129639 
	C823.711060,480.129639 826.737793,480.129639 830.285522,480.129639 
	C830.285522,485.697937 830.285522,491.271515 830.285522,497.552979 
	C832.434631,496.134796 833.819397,494.997894 835.384216,494.226196 
	C843.003174,490.468872 852.895081,494.490112 855.362427,503.380493 
	C856.854431,508.756073 856.888123,514.918945 856.025391,520.487793 
	C854.083984,533.019958 839.509216,538.361267 830.054016,528.970154 
	C828.513489,534.825439 824.232300,531.620178 820.507996,532.264404 
	C820.507996,520.382874 820.507996,508.942230 820.503296,497.002380 
M840.877502,501.184662 
	C838.169861,501.995575 834.773987,502.052246 832.892822,503.768860 
	C828.494507,507.782410 828.916260,518.690491 832.989868,523.163940 
	C836.249023,526.742981 841.145081,526.726990 844.328247,523.126770 
	C849.276672,517.530090 847.810669,505.788239 840.877502,501.184662 
z"/>
<path fill="#F6F5F4" opacity="1.000000" stroke="none" 
	d="
M433.424866,495.377472 
	C443.226776,490.594604 452.953674,494.224304 455.439972,504.300903 
	C456.815643,509.876251 456.949768,516.374146 455.514618,521.903687 
	C452.105072,535.040466 437.681519,537.253174 429.912079,528.483276 
	C429.470673,529.815308 429.105194,530.918152 428.701630,532.135986 
	C425.999695,532.135986 423.262390,532.135986 420.351990,532.135986 
	C420.351990,514.727051 420.351990,497.600403 420.351990,480.124756 
	C423.459015,480.124756 426.529510,480.124756 429.841309,480.124756 
	C429.841309,485.844818 429.841309,491.625824 429.841309,498.246613 
	C431.296265,497.083069 432.209534,496.352692 433.424866,495.377472 
M445.750305,520.849487 
	C445.882874,516.294739 446.519257,511.680695 445.992798,507.203400 
	C445.550476,503.441559 442.562836,501.167542 438.588898,501.105408 
	C434.632751,501.043579 431.607483,503.193848 430.898407,506.908905 
	C430.142639,510.868500 429.688568,515.280151 430.720398,519.051880 
	C431.443604,521.695374 434.511017,524.497498 437.199402,525.599243 
	C440.501221,526.952393 443.559723,524.812744 445.750305,520.849487 
z"/>
<path fill="#9FEC49" opacity="1.000000" stroke="none" 
	d="
M782.944885,498.012146 
	C787.838501,491.778839 801.031921,491.431213 806.773071,495.639862 
	C809.321899,497.508270 811.319031,501.376038 811.768250,504.587830 
	C812.566650,510.295715 811.866028,516.199341 812.047546,522.013123 
	C812.148132,525.235474 812.765564,528.441772 813.214783,532.196960 
	C809.783936,531.419739 804.991394,535.095215 802.705627,529.442261 
	C799.224243,530.843201 795.867371,532.771667 792.266296,533.512573 
	C786.323547,534.735352 780.747253,531.220642 779.205200,526.053345 
	C777.348694,519.832214 780.010437,513.559937 785.987915,511.217987 
	C789.031677,510.025421 792.497986,509.954285 795.642883,508.962677 
	C797.959656,508.232208 800.153748,506.957916 802.146484,505.560760 
	C802.381592,505.395966 801.094482,501.779358 800.343079,501.713959 
	C797.387024,501.456543 792.610535,500.903473 791.686096,502.409698 
	C788.665466,507.331085 784.572876,505.228516 779.546509,505.999908 
	C780.826477,502.895630 781.772583,500.601013 782.944885,498.012146 
M788.520203,522.933899 
	C790.483582,527.544312 794.230164,526.904480 797.749084,525.690918 
	C801.802979,524.292786 803.134033,520.290955 801.978516,514.154968 
	C798.931274,514.783386 795.841492,515.256042 792.850037,516.083862 
	C789.875000,516.907104 787.943848,518.781494 788.520203,522.933899 
z"/>
<path fill="#F6F5F4" opacity="1.000000" stroke="none" 
	d="
M510.238403,519.709900 
	C510.095184,515.837097 509.599548,512.295776 510.080872,508.892639 
	C511.438629,499.292511 518.514404,493.094940 527.635620,493.020050 
	C537.128601,492.942108 543.812195,498.557922 545.614380,508.326141 
	C546.055786,510.718536 545.993652,513.203857 546.180969,515.906372 
	C537.089050,515.906372 528.472168,515.906372 519.617859,515.906372 
	C519.064636,519.900269 520.110168,523.622864 523.573792,524.675720 
	C526.683289,525.621033 531.594421,525.781250 533.645020,523.960754 
	C537.505249,520.533691 541.071472,521.781860 545.102722,521.789551 
	C542.062744,529.872070 536.201904,533.773987 527.758057,533.616943 
	C518.634888,533.447205 513.407104,529.393494 510.238403,519.709900 
M533.155823,502.377350 
	C525.800537,498.556122 520.272644,501.386719 519.818176,509.356354 
	C525.169189,509.356354 530.508972,509.356354 536.886047,509.356354 
	C535.629028,506.802795 534.667725,504.849976 533.155823,502.377350 
z"/>
<path fill="#F6F5F4" opacity="1.000000" stroke="none" 
	d="
M647.827148,496.015991 
	C653.112427,492.222626 658.359436,491.986267 663.632507,494.847839 
	C668.558411,497.521027 669.269470,502.218872 669.202698,507.296112 
	C669.093628,515.581604 669.173279,523.869568 669.173279,532.338989 
	C665.865906,532.338989 663.070557,532.338989 659.348755,532.338989 
	C659.348755,526.100647 659.354492,519.851990 659.345276,513.603394 
	C659.342529,511.772308 659.320374,509.940613 659.266907,508.110352 
	C659.139099,503.730560 656.980530,501.239319 652.495178,501.212463 
	C648.292908,501.187256 645.196533,503.983063 645.086975,508.332184 
	C644.890259,516.146423 645.031494,523.969177 645.031494,532.136841 
	C641.710876,532.136841 638.651672,532.136841 635.303833,532.136841 
	C635.303833,519.472961 635.303833,506.891144 635.303833,494.107422 
	C638.064697,494.107422 640.863831,494.107422 644.080078,494.107422 
	C644.336304,495.301941 644.629883,496.670685 645.013367,498.458710 
	C645.954834,497.633148 646.734436,496.949493 647.827148,496.015991 
z"/>
<path fill="#F6F5F4" opacity="1.000000" stroke="none" 
	d="
M599.591431,531.570068 
	C590.744324,525.747375 587.692078,515.916199 591.223022,505.441711 
	C594.051147,497.051971 601.290833,492.423065 610.631409,493.032013 
	C622.354797,493.796356 629.128845,502.889435 628.008728,516.358276 
	C627.100769,527.275574 618.450623,534.710449 607.628662,533.649414 
	C605.019592,533.393555 602.481201,532.416687 599.591431,531.570068 
M618.132263,511.736084 
	C617.711243,509.796417 617.894592,507.299316 616.734314,506.041504 
	C614.756958,503.897858 611.987122,501.294250 609.454102,501.188690 
	C606.917053,501.082977 603.253540,503.170929 601.864136,505.404724 
	C598.722717,510.455200 598.624573,516.460754 601.887085,521.501831 
	C603.323547,523.721375 606.957520,525.784424 609.492737,525.670471 
	C612.015320,525.557129 615.119446,523.096558 616.655029,520.790649 
	C618.067566,518.669373 617.732666,515.384399 618.132263,511.736084 
z"/>
<path fill="#F6F5F4" opacity="1.000000" stroke="none" 
	d="
M378.409943,526.294983 
	C378.242340,515.490662 378.242340,505.046112 378.242340,494.268799 
	C380.749359,494.268799 383.628021,494.268799 387.130859,494.268799 
	C387.130859,501.610321 387.105255,509.035736 387.138824,516.460815 
	C387.166626,522.610229 389.326874,525.530823 393.832306,525.653259 
	C398.566345,525.781921 401.488678,522.609070 401.612488,516.697327 
	C401.768799,509.233948 401.650177,501.764801 401.650177,494.203247 
	C405.057343,494.203247 408.001923,494.203247 411.172485,494.203247 
	C411.172485,506.841370 411.172485,519.279236 411.172485,532.063843 
	C408.479797,532.063843 405.731873,532.063843 402.552551,532.063843 
	C402.301575,531.021790 401.987152,529.716431 401.662384,528.368225 
	C392.446808,536.148315 383.612335,535.454102 378.409943,526.294983 
z"/>
<path fill="#9FEC49" opacity="1.000000" stroke="none" 
	d="
M874.539062,516.391357 
	C871.323364,514.965942 868.038818,514.184814 865.760315,512.230652 
	C862.231812,509.204590 862.165527,504.906128 863.901611,500.735260 
	C866.251404,495.089661 873.148254,492.151581 881.401917,493.128113 
	C889.344360,494.067810 893.149658,497.426117 894.330811,504.819702 
	C890.418823,504.839142 886.686829,506.461761 883.335571,502.048248 
	C882.118164,500.445038 877.569641,501.209625 874.548828,501.272125 
	C873.936035,501.284760 872.709412,503.181427 872.908325,503.887695 
	C873.253906,505.114563 874.282898,506.662598 875.392090,507.065125 
	C878.812744,508.306488 882.422058,509.016968 885.929993,510.030701 
	C893.080444,512.097107 896.117615,515.500061 896.022156,521.208862 
	C895.923279,527.127380 891.951477,532.106567 885.150696,532.909729 
	C880.193176,533.495300 874.884277,532.996399 870.006165,531.832153 
	C865.142639,530.671326 862.596252,526.603271 861.826050,521.087158 
	C866.279175,520.995972 870.106934,519.548218 873.778870,524.183655 
	C875.302307,526.106812 880.858215,525.741943 884.268311,524.994324 
	C887.317749,524.325623 887.127197,520.433838 884.006348,519.100769 
	C881.133301,517.873535 877.961365,517.345886 874.539062,516.391357 
z"/>
<path fill="#99E348" opacity="1.000000" stroke="none" 
	d="
M739.742859,532.187500 
	C739.404968,514.773254 739.404968,497.661530 739.404968,480.295959 
	C742.799927,480.295959 745.904541,480.295959 749.662659,480.295959 
	C749.662659,494.467163 749.662659,508.680725 749.662659,523.444702 
	C758.534912,523.444702 766.776550,523.444702 775.282104,523.444702 
	C775.282104,526.601990 775.282104,529.202637 775.282104,532.490112 
	C763.562622,532.490112 751.821655,532.490112 739.742859,532.187500 
z"/>
<path fill="#F6F5F4" opacity="1.000000" stroke="none" 
	d="
M560.051758,494.860748 
	C567.599121,491.773926 574.639343,492.028442 580.494995,497.301453 
	C583.028931,499.583282 584.187439,503.392639 586.381836,507.226349 
	C580.355469,507.670898 576.460327,508.389893 573.502808,503.205048 
	C571.120117,499.028015 564.195801,500.363251 561.924927,504.988373 
	C559.381653,510.168304 559.037598,515.818481 561.680481,520.882385 
	C562.840393,523.104858 566.380737,525.723511 568.463806,525.435913 
	C571.478760,525.019470 574.151978,522.127686 576.971008,520.291870 
	C576.714783,519.847412 576.458496,519.402954 576.202271,518.958496 
	C579.108215,518.958496 582.014160,518.958496 584.936340,518.958496 
	C584.241089,526.168701 579.877991,531.369507 573.319397,533.033020 
	C565.698120,534.966003 558.141785,532.498962 554.041626,526.887085 
	C547.656250,518.147461 549.311768,499.814819 560.051758,494.860748 
z"/>
<path fill="#142304" opacity="1.000000" stroke="none" 
	d="
M276.887115,468.754639 
	C279.428375,475.196777 282.241364,481.547394 284.449036,488.101898 
	C288.019897,498.703339 291.583649,509.338013 294.374725,520.158691 
	C295.847412,525.868225 295.545532,531.780212 292.902435,537.656677 
	C290.488129,543.024353 290.080536,549.275146 287.825439,554.739319 
	C285.596588,560.139893 282.642151,565.406311 279.119751,570.060852 
	C275.662750,574.629028 271.038605,578.302979 267.018860,582.458557 
	C259.145233,590.598145 249.113083,594.491516 238.626404,598.077271 
	C226.851562,602.103516 214.641052,602.889587 203.380402,599.548828 
	C189.446198,595.414856 175.403839,589.657654 167.899719,575.261414 
	C165.522812,570.701538 160.662460,572.080383 156.852371,571.087524 
	C154.976654,570.598755 152.850510,571.167603 150.883911,570.907898 
	C148.034058,570.531555 145.708466,569.377747 146.460846,565.362122 
	C153.077271,564.864197 159.309555,564.230103 165.375519,564.966370 
	C176.363312,566.300049 185.120636,563.307190 191.678116,554.190857 
	C192.814606,552.610840 194.767990,551.643982 196.089691,550.166382 
	C198.770004,547.169800 201.823410,545.287415 206.286530,546.168274 
	C206.873276,547.578918 207.183472,548.754089 207.579697,550.255127 
	C209.214905,549.408813 210.591751,548.696167 212.323059,548.142334 
	C217.150101,549.351135 225.884293,545.606873 227.376801,541.741211 
	C227.677109,540.963379 226.640930,539.669495 226.466797,538.360474 
	C229.427719,536.385437 232.142792,534.663452 235.230469,532.955261 
	C236.381546,532.261658 237.160034,531.554321 238.126205,530.571228 
	C240.559540,528.694397 242.805191,527.093323 245.399460,525.243713 
	C243.196106,523.512939 241.177460,521.927246 239.529053,520.255310 
	C240.172134,519.272827 240.919037,517.806946 240.639542,517.574341 
	C239.025970,516.231384 237.190720,515.332214 235.620483,518.039368 
	C232.066635,515.698914 228.847427,513.448853 225.940765,510.983887 
	C228.116364,506.515778 224.892136,504.535278 222.201675,502.919556 
	C218.765915,500.856262 215.258102,497.010773 210.419312,501.030029 
	C208.186356,498.166077 206.047958,500.714142 203.957306,500.345337 
	C202.999649,498.883148 202.325821,497.351654 201.159302,496.693787 
	C196.518829,494.076813 191.892502,491.450989 189.650482,486.318665 
	C188.433167,483.532043 187.758942,480.508179 187.039917,477.339966 
	C189.115341,476.034485 190.990601,474.980408 193.117584,474.116638 
	C193.443436,475.369354 193.517593,476.431732 193.618530,477.878082 
	C199.123383,476.071259 204.469116,474.576752 209.556290,472.460632 
	C210.798721,471.943817 211.193466,469.389130 212.242477,467.601715 
	C213.332565,467.393982 214.158127,467.355927 215.003448,467.690308 
	C216.369492,469.033203 217.797943,470.929474 219.048218,470.818481 
	C225.430756,470.251953 231.112289,472.067902 236.552795,475.029694 
	C241.092087,477.500916 245.501770,480.215179 250.084259,482.600128 
	C252.768845,483.997284 255.760727,486.776306 258.619568,482.454224 
	C261.215210,485.333496 263.507660,488.032837 265.381622,490.793091 
	C264.166656,491.857025 262.479218,493.211426 262.714355,493.807556 
	C264.634613,498.676361 267.024017,503.357544 269.044037,508.190552 
	C270.340668,511.292877 272.324249,512.609253 275.770325,512.131409 
	C276.328033,518.119385 277.475098,523.805481 277.036377,529.366455 
	C273.515381,573.997192 225.320129,596.745178 190.590805,574.690979 
	C183.759552,570.352905 177.486526,570.712952 169.918121,570.337036 
	C170.643295,571.466248 170.894989,572.042236 171.303436,572.467712 
	C186.950195,588.768372 206.260666,595.722107 228.387802,592.536682 
	C255.355423,588.654419 274.472961,573.453796 283.477722,547.664062 
	C292.691620,521.275391 286.432373,497.505829 267.713287,476.908203 
	C266.632721,475.719177 265.819153,474.287567 265.127869,472.755798 
	C266.335815,471.441956 267.297241,470.341187 268.285767,469.209351 
	C270.005066,470.279266 271.503326,471.211670 273.042145,472.169281 
	C274.452423,470.916840 275.669769,469.835754 276.887115,468.754639 
M209.719742,574.994202 
	C214.968048,574.997620 220.281876,575.530945 225.450790,574.892090 
	C235.653946,573.631104 244.690094,568.983215 253.071182,563.312134 
	C260.942078,557.986328 262.079865,548.477356 265.931580,540.679138 
	C270.856323,530.708496 271.866241,520.749268 265.521942,510.859894 
	C264.652496,509.504639 264.522552,507.696136 263.896057,506.160339 
	C260.885437,498.780060 257.973206,491.152252 250.880264,486.695587 
	C245.580811,483.365753 239.881943,480.554413 234.100601,478.133972 
	C223.235748,473.585236 212.438995,473.935516 202.093658,479.977753 
	C197.565521,482.622498 196.006287,487.844269 199.506729,490.700867 
	C202.531708,493.169403 206.566055,495.425140 210.320908,495.731415 
	C215.742508,496.173615 220.304169,497.561279 224.477051,500.914093 
	C230.279053,505.575897 236.456619,509.808868 241.943314,514.807312 
	C244.461533,517.101501 247.192245,520.760498 247.233963,523.835815 
	C247.315887,529.873352 244.602158,535.302002 239.160629,538.986389 
	C236.018661,541.113831 233.471451,544.162781 230.241058,546.106384 
	C225.346802,549.051147 220.262421,551.852295 214.934830,553.850952 
	C210.527710,555.504211 205.562149,555.603516 201.007339,556.945557 
	C195.779526,558.486023 194.540543,564.267334 197.882690,568.475891 
	C200.775726,572.118896 204.068039,574.697327 209.719742,574.994202 
z"/>
<path fill="#A2F854" opacity="1.000000" stroke="none" 
	d="
M239.158798,520.341553 
	C241.177460,521.927246 243.196106,523.512939 245.399460,525.243713 
	C242.805191,527.093323 240.559540,528.694397 237.813812,530.638123 
	C236.495132,531.634338 235.676498,532.287903 234.857880,532.941467 
	C232.142792,534.663452 229.427719,536.385437 226.165848,538.461243 
	C221.068893,541.871216 216.518738,544.927368 211.968597,547.983582 
	C210.591751,548.696167 209.214905,549.408813 207.579697,550.255127 
	C207.183472,548.754089 206.873276,547.578918 206.286057,545.823608 
	C206.014679,544.324280 206.020325,543.405212 206.312836,542.156799 
	C206.599686,539.927002 206.599686,538.026489 206.599686,535.596985 
	C203.449081,535.798584 200.688660,535.975220 197.469757,536.096130 
	C192.649033,536.308289 188.286789,536.576172 183.699829,536.491455 
	C176.530624,535.891541 169.586731,535.622925 162.640625,535.437073 
	C162.069321,535.421753 161.308456,535.823303 160.930878,536.276855 
	C157.502350,540.395142 153.800888,539.598267 149.958557,536.999939 
	C148.486862,532.857605 149.370865,529.604919 154.141510,527.408203 
	C156.520676,528.044678 158.235916,528.953308 160.035309,529.642090 
	C162.060745,530.417480 164.162018,530.994751 166.603912,531.759827 
	C180.203339,531.861450 193.429153,531.861450 206.570450,531.861450 
	C206.570450,528.820984 206.570450,526.574463 206.570450,523.831360 
	C195.937592,523.831360 185.654449,523.789246 175.373001,523.901306 
	C174.420181,523.911621 173.515289,524.987183 172.523300,525.419250 
	C170.364838,526.359375 168.164520,527.203369 165.692169,527.875183 
	C161.336868,524.099182 160.583755,521.040100 163.335999,518.059021 
	C166.649033,514.470581 169.644501,515.654907 172.581726,518.857910 
	C173.313889,519.656372 174.870041,519.984131 176.063019,520.020630 
	C179.365067,520.121704 182.675323,519.954956 186.444946,519.983887 
	C193.458389,520.073608 200.009232,520.073608 206.895035,520.073608 
	C206.786789,517.850586 206.708008,516.232788 206.719696,514.151123 
	C206.858185,512.429199 206.906235,511.171112 206.959412,509.502930 
	C206.985016,507.726044 207.005463,506.359192 207.318802,504.861755 
	C208.741867,503.816315 209.872070,502.901459 211.334183,502.078003 
	C216.320129,505.179199 220.974167,508.188995 225.628220,511.198792 
	C228.847427,513.448853 232.066635,515.698914 235.762741,518.291199 
	C237.212692,519.202820 238.185745,519.772217 239.158798,520.341553 
z"/>
<path fill="#142304" opacity="1.000000" stroke="none" 
	d="
M153.993454,486.944763 
	C155.029877,485.446747 155.734955,483.284332 157.163223,482.572052 
	C161.960800,480.179474 166.123886,477.352692 169.651306,473.115509 
	C172.542038,469.643127 177.433029,467.781219 180.135513,464.218048 
	C186.172943,456.257660 196.156326,451.010498 197.053665,439.354919 
	C197.497696,433.587433 204.487488,428.281403 210.171738,427.962769 
	C218.422333,427.500275 226.636185,426.994385 234.501541,430.317749 
	C237.574921,431.616394 237.690598,431.963867 235.097153,434.279968 
	C225.214554,434.259186 216.103714,434.145966 206.993774,434.196136 
	C205.617279,434.203735 203.102081,434.864197 203.050995,435.405548 
	C202.630508,439.860657 202.668030,444.358978 202.153305,448.890289 
	C201.111328,449.106812 200.266632,449.075043 199.888138,449.479553 
	C196.716492,452.868896 193.549988,456.271484 190.585098,459.838928 
	C189.977554,460.569916 190.221573,462.008667 189.931335,463.433624 
	C182.329147,468.662994 174.243500,472.825592 168.655945,480.826874 
	C171.573380,481.005157 173.879883,481.146118 176.134506,481.708435 
	C176.386963,483.734344 176.691330,485.338928 176.532990,487.022461 
	C168.711349,487.049225 161.352402,486.996979 153.993454,486.944763 
z"/>
<path fill="#9FEC49" opacity="1.000000" stroke="none" 
	d="
M202.566666,448.844208 
	C202.668030,444.358978 202.630508,439.860657 203.050995,435.405548 
	C203.102081,434.864197 205.617279,434.203735 206.993774,434.196136 
	C216.103714,434.145966 225.214554,434.259186 234.726929,434.376892 
	C235.719879,436.684082 236.310974,438.933563 236.893188,441.987732 
	C236.594742,444.871918 236.305191,446.951355 235.632324,449.174103 
	C232.312469,449.552124 229.375931,449.786865 226.275269,450.034698 
	C226.085373,451.449890 225.913422,452.731232 225.393082,454.018097 
	C223.591095,454.565704 222.137497,455.107788 220.392990,455.758362 
	C219.795685,454.277008 219.452255,452.830322 218.684448,451.662689 
	C217.575607,449.976410 216.413376,447.639679 213.480133,450.042419 
	C209.563400,449.543182 206.065033,449.193695 202.566666,448.844208 
z"/>
<path fill="#192D05" opacity="1.000000" stroke="none" 
	d="
M166.230316,531.658203 
	C164.162018,530.994751 162.060745,530.417480 160.035309,529.642090 
	C158.235916,528.953308 156.520676,528.044678 154.398773,527.189270 
	C154.042007,521.309143 153.551544,515.699768 148.359787,511.715973 
	C147.593643,511.128082 147.452591,509.725494 147.364288,508.357910 
	C149.721161,507.675110 152.180145,507.955505 153.674911,506.887024 
	C160.545105,501.976227 171.593735,502.822144 177.446152,509.015320 
	C179.869263,511.579498 181.709854,515.147583 186.119141,514.987793 
	C186.042892,516.924438 186.012619,518.409302 185.982330,519.894104 
	C182.675323,519.954956 179.365067,520.121704 176.063019,520.020630 
	C174.870041,519.984131 173.313889,519.656372 172.581726,518.857910 
	C169.644501,515.654907 166.649033,514.470581 163.335999,518.059021 
	C160.583755,521.040100 161.336868,524.099182 165.700012,528.321777 
	C166.074799,529.872620 166.152557,530.765442 166.230316,531.658203 
z"/>
<path fill="#192D05" opacity="1.000000" stroke="none" 
	d="
M136.969757,556.695007 
	C137.197510,556.204102 137.425247,555.713257 138.329742,555.101562 
	C141.411865,554.727478 143.871399,554.705688 146.208069,554.158875 
	C148.761612,553.561218 151.145645,552.039490 153.704559,551.713562 
	C157.148010,551.274963 160.771484,551.107178 164.170120,551.687439 
	C172.335464,553.081726 177.531815,549.557861 181.069702,542.626892 
	C181.215668,542.340881 181.483932,542.117432 181.995453,542.063599 
	C184.607224,545.056702 186.918762,547.851013 189.121414,550.943054 
	C183.722321,558.566223 177.138046,562.713928 167.553284,561.198303 
	C163.179169,560.506653 158.601501,561.142639 154.116898,561.099670 
	C148.047684,561.041565 141.545059,562.595581 136.969757,556.695007 
z"/>
<path fill="#192D05" opacity="1.000000" stroke="none" 
	d="
M151.903061,496.517914 
	C151.654205,495.028198 151.405350,493.538452 151.594559,491.509583 
	C156.330994,490.961792 160.688141,491.404999 164.916061,490.854919 
	C175.194595,489.517517 183.692413,491.879089 189.721771,500.898499 
	C190.796097,502.505615 192.553726,503.655945 194.000061,505.442627 
	C194.013199,507.289917 194.022110,508.711731 193.663376,510.245880 
	C186.799973,511.688446 181.560532,509.707520 177.798737,504.241241 
	C175.470520,500.858032 172.426605,500.045471 168.432632,500.223267 
	C162.683258,500.479187 156.485260,501.819702 151.903061,496.517914 
z"/>
<path fill="#9FEC49" opacity="1.000000" stroke="none" 
	d="
M193.995850,505.017181 
	C192.553726,503.655945 190.796097,502.505615 189.721771,500.898499 
	C183.692413,491.879089 175.194595,489.517517 164.916061,490.854919 
	C160.688141,491.404999 156.330994,490.961792 151.656723,491.055054 
	C149.964676,491.120361 148.648544,491.101044 146.712769,491.070618 
	C145.730911,491.373627 145.368683,491.687744 145.006470,492.001892 
	C142.600815,495.095551 139.367859,496.765778 136.100403,494.230042 
	C134.476608,492.969940 133.478027,489.706177 133.712677,487.510864 
	C134.137451,483.536652 139.653610,481.297119 142.344757,484.144287 
	C145.629028,487.618988 149.241837,487.202881 153.552185,487.026672 
	C161.352402,486.996979 168.711349,487.049225 176.919861,487.104156 
	C183.881149,486.630280 186.095688,492.012878 189.213501,495.401672 
	C193.461960,500.019379 197.944565,502.083038 204.014709,500.677521 
	C206.047958,500.714142 208.186356,498.166077 210.480042,501.245392 
	C210.851257,501.565338 211.002274,501.986633 211.002274,501.986633 
	C209.872070,502.901459 208.741867,503.816315 206.856201,504.808716 
	C202.065750,504.929901 198.030807,504.973541 193.995850,505.017181 
z"/>
<path fill="#192D05" opacity="1.000000" stroke="none" 
	d="
M149.541641,537.002441 
	C153.800888,539.598267 157.502350,540.395142 160.930878,536.276855 
	C161.308456,535.823303 162.069321,535.421753 162.640625,535.437073 
	C169.586731,535.622925 176.530624,535.891541 183.723022,536.775879 
	C183.327484,538.606262 182.684021,539.799500 181.995926,540.683960 
	C181.923630,540.212463 181.926559,540.035339 181.859467,539.890869 
	C181.796844,539.756042 181.586792,539.542969 181.565933,539.556458 
	C180.095627,540.507690 178.170792,541.162048 177.262665,542.503723 
	C173.956940,547.387817 169.384857,548.494263 163.933792,547.919495 
	C161.810455,547.695496 159.642334,547.922607 157.495392,547.890869 
	C153.016968,547.824707 148.335236,548.834595 144.929749,544.347717 
	C144.163147,543.337708 141.892044,543.469604 140.063629,543.136353 
	C139.557175,543.411621 139.300583,543.626465 138.771622,543.939087 
	C138.197433,544.277344 137.895584,544.517700 137.593750,544.758118 
	C136.043121,538.541809 141.911621,539.298218 144.768677,537.371155 
	C145.823257,536.659851 147.650101,537.093567 149.541641,537.002441 
z"/>
<path fill="#99E348" opacity="1.000000" stroke="none" 
	d="
M136.578644,556.723022 
	C141.545059,562.595581 148.047684,561.041565 154.116898,561.099670 
	C158.601501,561.142639 163.179169,560.506653 167.553284,561.198303 
	C177.138046,562.713928 183.722321,558.566223 189.411163,550.745239 
	C192.590515,547.595825 195.371246,544.942017 198.510590,542.276855 
	C201.254776,542.339111 203.640381,542.412598 206.025986,542.486084 
	C206.020325,543.405212 206.014679,544.324280 206.009491,545.588074 
	C201.823410,545.287415 198.770004,547.169800 196.089691,550.166382 
	C194.767990,551.643982 192.814606,552.610840 191.678116,554.190857 
	C185.120636,563.307190 176.363312,566.300049 165.375519,564.966370 
	C159.309555,564.230103 153.077271,564.864197 146.458008,564.968018 
	C144.179230,565.426208 142.352753,565.755676 140.547897,566.177673 
	C138.044754,566.762695 135.279892,568.357971 133.156006,567.730469 
	C131.587646,567.267151 129.475662,563.281250 130.068100,562.040527 
	C131.132416,559.811523 134.046402,558.465759 136.578644,556.723022 
z"/>
<path fill="#9FEC49" opacity="1.000000" stroke="none" 
	d="
M151.526123,496.466003 
	C156.485260,501.819702 162.683258,500.479187 168.432632,500.223267 
	C172.426605,500.045471 175.470520,500.858032 177.798737,504.241241 
	C181.560532,509.707520 186.799973,511.688446 194.117416,510.332947 
	C198.944168,510.176147 202.949219,510.044556 206.954285,509.912994 
	C206.906235,511.171112 206.858185,512.429199 206.284546,514.078918 
	C199.227661,514.492310 192.696381,514.514099 186.165100,514.535889 
	C181.709854,515.147583 179.869263,511.579498 177.446152,509.015320 
	C171.593735,502.822144 160.545105,501.976227 153.674911,506.887024 
	C152.180145,507.955505 149.721161,507.675110 147.360229,507.989441 
	C146.033371,505.530396 144.017471,502.957916 144.322952,500.699341 
	C144.743622,497.589020 147.653748,495.939545 151.526123,496.466003 
z"/>
<path fill="#9FEC49" opacity="1.000000" stroke="none" 
	d="
M276.994019,468.450928 
	C275.669769,469.835754 274.452423,470.916840 273.042145,472.169281 
	C271.503326,471.211670 270.005066,470.279266 268.285767,469.209351 
	C267.297241,470.341187 266.335815,471.441956 264.773132,472.718506 
	C262.372864,470.418182 260.573914,467.942108 258.900696,465.153320 
	C262.147552,461.014893 257.380188,460.869995 256.144287,458.712036 
	C257.993530,455.913025 260.001129,453.405365 262.008698,450.897675 
	C266.839569,454.688660 271.647644,458.509186 276.511200,462.257782 
	C278.857086,464.065948 279.012878,465.972839 276.994019,468.450928 
z"/>
<path fill="#99E348" opacity="1.000000" stroke="none" 
	d="
M140.313507,543.075867 
	C141.892044,543.469604 144.163147,543.337708 144.929749,544.347717 
	C148.335236,548.834595 153.016968,547.824707 157.495392,547.890869 
	C159.642334,547.922607 161.810455,547.695496 163.933792,547.919495 
	C169.384857,548.494263 173.956940,547.387817 177.262665,542.503723 
	C178.170792,541.162048 180.095627,540.507690 181.565933,539.556458 
	C181.586792,539.542969 181.796844,539.756042 181.859467,539.890869 
	C181.926559,540.035339 181.923630,540.212463 181.868500,540.885803 
	C181.785736,541.396301 181.695221,541.864807 181.695221,541.864807 
	C181.483932,542.117432 181.215668,542.340881 181.069702,542.626892 
	C177.531815,549.557861 172.335464,553.081726 164.170120,551.687439 
	C160.771484,551.107178 157.148010,551.274963 153.704559,551.713562 
	C151.145645,552.039490 148.761612,553.561218 146.208069,554.158875 
	C143.871399,554.705688 141.411865,554.727478 138.574554,554.968689 
	C136.809647,551.841003 134.653900,548.813538 137.350449,545.025146 
	C137.895584,544.517700 138.197433,544.277344 139.044769,543.948730 
	C139.831360,543.598938 140.072433,543.337402 140.313507,543.075867 
z"/>
<path fill="#142304" opacity="1.000000" stroke="none" 
	d="
M261.954834,450.544373 
	C260.001129,453.405365 257.993530,455.913025 255.728790,458.705994 
	C248.508987,456.603485 240.315613,456.619690 236.015656,449.030823 
	C236.305191,446.951355 236.594742,444.871918 236.972885,442.393158 
	C239.084320,443.080414 241.643936,443.710907 243.028030,445.340118 
	C246.968155,449.977814 250.866608,451.360535 256.643585,449.132599 
	C258.710114,448.335632 260.703766,447.042938 261.954834,450.544373 
z"/>
<path fill="#192D05" opacity="1.000000" stroke="none" 
	d="
M145.421448,491.879944 
	C145.368683,491.687744 145.730911,491.373627 146.336792,491.188110 
	C146.332458,491.463837 146.084442,491.610931 145.421448,491.879944 
z"/>
<path fill="#040800" opacity="1.000000" stroke="none" 
	d="
M702.986328,514.773071 
	C702.782715,516.341431 702.686035,517.505920 702.395691,518.619873 
	C701.347900,522.639771 699.195862,525.725098 694.651428,525.710754 
	C690.250427,525.696960 687.307068,522.949097 686.648865,518.880310 
	C686.032776,515.071960 686.115173,510.968750 686.837891,507.175903 
	C687.587646,503.241547 690.677429,501.006561 694.856750,501.137024 
	C698.890015,501.262939 701.200562,503.783905 702.114441,507.490540 
	C702.662598,509.713684 702.724121,512.056824 702.986328,514.773071 
z"/>
<path fill="#040800" opacity="1.000000" stroke="none" 
	d="
M841.250122,501.321289 
	C847.810669,505.788239 849.276672,517.530090 844.328247,523.126770 
	C841.145081,526.726990 836.249023,526.742981 832.989868,523.163940 
	C828.916260,518.690491 828.494507,507.782410 832.892822,503.768860 
	C834.773987,502.052246 838.169861,501.995575 841.250122,501.321289 
z"/>
<path fill="#040800" opacity="1.000000" stroke="none" 
	d="
M445.542542,521.188110 
	C443.559723,524.812744 440.501221,526.952393 437.199402,525.599243 
	C434.511017,524.497498 431.443604,521.695374 430.720398,519.051880 
	C429.688568,515.280151 430.142639,510.868500 430.898407,506.908905 
	C431.607483,503.193848 434.632751,501.043579 438.588898,501.105408 
	C442.562836,501.167542 445.550476,503.441559 445.992798,507.203400 
	C446.519257,511.680695 445.882874,516.294739 445.542542,521.188110 
z"/>
<path fill="#091101" opacity="1.000000" stroke="none" 
	d="
M788.411987,522.573792 
	C787.943848,518.781494 789.875000,516.907104 792.850037,516.083862 
	C795.841492,515.256042 798.931274,514.783386 801.978516,514.154968 
	C803.134033,520.290955 801.802979,524.292786 797.749084,525.690918 
	C794.230164,526.904480 790.483582,527.544312 788.411987,522.573792 
z"/>
<path fill="#142304" opacity="1.000000" stroke="none" 
	d="
M533.431091,502.637268 
	C534.667725,504.849976 535.629028,506.802795 536.886047,509.356354 
	C530.508972,509.356354 525.169189,509.356354 519.818176,509.356354 
	C520.272644,501.386719 525.800537,498.556122 533.431091,502.637268 
z"/>
<path fill="#040800" opacity="1.000000" stroke="none" 
	d="
M618.149902,512.174072 
	C617.732666,515.384399 618.067566,518.669373 616.655029,520.790649 
	C615.119446,523.096558 612.015320,525.557129 609.492737,525.670471 
	C606.957520,525.784424 603.323547,523.721375 601.887085,521.501831 
	C598.624573,516.460754 598.722717,510.455200 601.864136,505.404724 
	C603.253540,503.170929 606.917053,501.082977 609.454102,501.188690 
	C611.987122,501.294250 614.756958,503.897858 616.734314,506.041504 
	C617.894592,507.299316 617.711243,509.796417 618.149902,512.174072 
z"/>
<path fill="#A2F854" opacity="1.000000" stroke="none" 
	d="
M258.774963,465.466003 
	C260.573914,467.942108 262.372864,470.418182 264.526550,472.931580 
	C265.819153,474.287567 266.632721,475.719177 267.713287,476.908203 
	C286.432373,497.505829 292.691620,521.275391 283.477722,547.664062 
	C274.472961,573.453796 255.355423,588.654419 228.387802,592.536682 
	C206.260666,595.722107 186.950195,588.768372 171.303436,572.467712 
	C170.894989,572.042236 170.643295,571.466248 169.918121,570.337036 
	C177.486526,570.712952 183.759552,570.352905 190.590805,574.690979 
	C225.320129,596.745178 273.515381,573.997192 277.036377,529.366455 
	C277.475098,523.805481 276.328033,518.119385 275.729767,511.735596 
	C272.295898,504.230682 269.048004,497.481445 265.800110,490.732178 
	C263.507660,488.032837 261.215210,485.333496 258.453674,482.193359 
	C245.588272,471.169861 231.437119,465.814636 214.983688,467.317902 
	C214.158127,467.355927 213.332565,467.393982 211.825195,467.562256 
	C205.050903,469.770447 198.958389,471.848389 192.865875,473.926331 
	C190.990601,474.980408 189.115341,476.034485 186.702881,477.477661 
	C183.497437,480.927185 179.903336,481.286316 176.186401,481.287079 
	C173.879883,481.146118 171.573380,481.005157 168.655945,480.826874 
	C174.243500,472.825592 182.329147,468.662994 190.320618,463.422729 
	C196.211777,461.466492 201.493851,458.911255 206.953156,458.449036 
	C212.925262,457.943420 214.583389,455.477356 213.898483,450.192139 
	C216.413376,447.639679 217.575607,449.976410 218.684448,451.662689 
	C219.452255,452.830322 219.795685,454.277008 220.392990,455.758362 
	C222.137497,455.107788 223.591095,454.565704 225.485382,454.410736 
	C226.938965,455.776459 227.783905,457.230225 228.991791,457.657135 
	C237.324890,460.602478 245.706253,463.421997 254.146225,466.043304 
	C255.498901,466.463409 257.222717,465.688477 258.774963,465.466003 
z"/>
<path fill="#091101" opacity="1.000000" stroke="none" 
	d="
M209.285004,574.976257 
	C204.068039,574.697327 200.775726,572.118896 197.882690,568.475891 
	C194.540543,564.267334 195.779526,558.486023 201.007339,556.945557 
	C205.562149,555.603516 210.527710,555.504211 214.934830,553.850952 
	C220.262421,551.852295 225.346802,549.051147 230.241058,546.106384 
	C233.471451,544.162781 236.018661,541.113831 239.160629,538.986389 
	C244.602158,535.302002 247.315887,529.873352 247.233963,523.835815 
	C247.192245,520.760498 244.461533,517.101501 241.943314,514.807312 
	C236.456619,509.808868 230.279053,505.575897 224.477051,500.914093 
	C220.304169,497.561279 215.742508,496.173615 210.320908,495.731415 
	C206.566055,495.425140 202.531708,493.169403 199.506729,490.700867 
	C196.006287,487.844269 197.565521,482.622498 202.093658,479.977753 
	C212.438995,473.935516 223.235748,473.585236 234.100601,478.133972 
	C239.881943,480.554413 245.580811,483.365753 250.880264,486.695587 
	C257.973206,491.152252 260.885437,498.780060 263.896057,506.160339 
	C264.522552,507.696136 264.652496,509.504639 265.521942,510.859894 
	C271.866241,520.749268 270.856323,530.708496 265.931580,540.679138 
	C262.079865,548.477356 260.942078,557.986328 253.071182,563.312134 
	C244.690094,568.983215 235.653946,573.631104 225.450790,574.892090 
	C220.281876,575.530945 214.968048,574.997620 209.285004,574.976257 
M258.980255,546.531433 
	C260.800110,541.735046 262.431152,536.855774 264.489807,532.164185 
	C266.825165,526.841858 265.977692,521.831055 263.903015,516.748169 
	C262.224945,512.636841 260.905365,508.362000 258.987549,504.370758 
	C257.100372,500.443298 255.503418,495.662811 252.285934,493.237854 
	C245.745209,488.308350 238.522751,483.934357 230.973434,480.791229 
	C223.568329,477.708069 215.348572,477.397156 207.938065,481.619995 
	C206.153183,482.637085 205.322266,485.328308 204.052643,487.249664 
	C205.959564,488.505341 207.727509,490.098724 209.800186,490.951660 
	C215.423904,493.266083 221.634354,494.506561 226.758240,497.591278 
	C232.649261,501.137787 237.555054,506.293762 243.012436,510.593750 
	C252.163300,517.803894 253.542603,532.395996 245.213943,538.794983 
	C233.916229,547.475098 223.784241,558.347473 208.085205,559.356506 
	C206.634445,559.449768 204.458405,562.425476 204.290909,564.218994 
	C204.132568,565.914490 205.775803,568.780884 207.334946,569.429260 
	C210.765427,570.856018 214.629578,571.793701 218.340607,571.877869 
	C226.210754,572.056335 233.368927,569.568726 240.646317,566.253906 
	C249.597733,562.176575 256.071381,556.812805 258.980255,546.531433 
z"/>
<path fill="#192D05" opacity="1.000000" stroke="none" 
	d="
M215.003448,467.690308 
	C231.437119,465.814636 245.588272,471.169861 258.150513,482.013458 
	C255.760727,486.776306 252.768845,483.997284 250.084259,482.600128 
	C245.501770,480.215179 241.092087,477.500916 236.552795,475.029694 
	C231.112289,472.067902 225.430756,470.251953 219.048218,470.818481 
	C217.797943,470.929474 216.369492,469.033203 215.003448,467.690308 
z"/>
<path fill="#192D05" opacity="1.000000" stroke="none" 
	d="
M176.134506,481.708435 
	C179.903336,481.286316 183.497437,480.927185 186.502716,477.729004 
	C187.758942,480.508179 188.433167,483.532043 189.650482,486.318665 
	C191.892502,491.450989 196.518829,494.076813 201.159302,496.693787 
	C202.325821,497.351654 202.999649,498.883148 203.957306,500.345337 
	C197.944565,502.083038 193.461960,500.019379 189.213501,495.401672 
	C186.095688,492.012878 183.881149,486.630280 177.382553,487.025177 
	C176.691330,485.338928 176.386963,483.734344 176.134506,481.708435 
z"/>
<path fill="#192D05" opacity="1.000000" stroke="none" 
	d="
M265.381622,490.793091 
	C269.048004,497.481445 272.295898,504.230682 275.584351,511.375763 
	C272.324249,512.609253 270.340668,511.292877 269.044037,508.190552 
	C267.024017,503.357544 264.634613,498.676361 262.714355,493.807556 
	C262.479218,493.211426 264.166656,491.857025 265.381622,490.793091 
z"/>
<path fill="#192D05" opacity="1.000000" stroke="none" 
	d="
M193.117584,474.116638 
	C198.958389,471.848389 205.050903,469.770447 211.560669,467.731964 
	C211.193466,469.389130 210.798721,471.943817 209.556290,472.460632 
	C204.469116,474.576752 199.123383,476.071259 193.618530,477.878082 
	C193.517593,476.431732 193.443436,475.369354 193.117584,474.116638 
z"/>
<path fill="#192D05" opacity="1.000000" stroke="none" 
	d="
M211.334183,502.078003 
	C211.002274,501.986633 210.851257,501.565338 210.790527,501.349976 
	C215.258102,497.010773 218.765915,500.856262 222.201675,502.919556 
	C224.892136,504.535278 228.116364,506.515778 225.940765,510.983887 
	C220.974167,508.188995 216.320129,505.179199 211.334183,502.078003 
z"/>
<path fill="#192D05" opacity="1.000000" stroke="none" 
	d="
M212.323059,548.142334 
	C216.518738,544.927368 221.068893,541.871216 225.919998,538.714355 
	C226.640930,539.669495 227.677109,540.963379 227.376801,541.741211 
	C225.884293,545.606873 217.150101,549.351135 212.323059,548.142334 
z"/>
<path fill="#192D05" opacity="1.000000" stroke="none" 
	d="
M239.529053,520.255310 
	C238.185745,519.772217 237.212692,519.202820 236.097382,518.381592 
	C237.190720,515.332214 239.025970,516.231384 240.639542,517.574341 
	C240.919037,517.806946 240.172134,519.272827 239.529053,520.255310 
z"/>
<path fill="#192D05" opacity="1.000000" stroke="none" 
	d="
M235.230469,532.955261 
	C235.676498,532.287903 236.495132,531.634338 237.626160,530.913879 
	C237.160034,531.554321 236.381546,532.261658 235.230469,532.955261 
z"/>
<path fill="#294508" opacity="1.000000" stroke="none" 
	d="
M166.603912,531.759827 
	C166.152557,530.765442 166.074799,529.872620 165.989182,528.533264 
	C168.164520,527.203369 170.364838,526.359375 172.523300,525.419250 
	C173.515289,524.987183 174.420181,523.911621 175.373001,523.901306 
	C185.654449,523.789246 195.937592,523.831360 206.570450,523.831360 
	C206.570450,526.574463 206.570450,528.820984 206.570450,531.861450 
	C193.429153,531.861450 180.203339,531.861450 166.603912,531.759827 
z"/>
<path fill="#142304" opacity="1.000000" stroke="none" 
	d="
M181.995453,542.063599 
	C181.695221,541.864807 181.785736,541.396301 181.913147,541.194458 
	C182.684021,539.799500 183.327484,538.606262 183.947739,537.128601 
	C188.286789,536.576172 192.649033,536.308289 197.259735,536.320618 
	C196.625153,536.860779 195.742126,537.120728 195.486176,537.196045 
	C196.394791,538.931702 197.273392,540.609924 198.151978,542.288208 
	C195.371246,544.942017 192.590515,547.595825 189.520020,550.447510 
	C186.918762,547.851013 184.607224,545.056702 181.995453,542.063599 
z"/>
<path fill="#294508" opacity="1.000000" stroke="none" 
	d="
M186.119141,514.987793 
	C192.696381,514.514099 199.227661,514.492310 206.194092,514.542725 
	C206.708008,516.232788 206.786789,517.850586 206.895035,520.073608 
	C200.009232,520.073608 193.458389,520.073608 186.444946,519.983887 
	C186.012619,518.409302 186.042892,516.924438 186.119141,514.987793 
z"/>
<path fill="#294508" opacity="1.000000" stroke="none" 
	d="
M206.959412,509.502930 
	C202.949219,510.044556 198.944168,510.176147 194.485062,510.220642 
	C194.022110,508.711731 194.013199,507.289917 194.000076,505.442627 
	C198.030807,504.973541 202.065750,504.929901 206.563324,504.939301 
	C207.005463,506.359192 206.985016,507.726044 206.959412,509.502930 
z"/>
<path fill="#294508" opacity="1.000000" stroke="none" 
	d="
M198.510574,542.276855 
	C197.273392,540.609924 196.394791,538.931702 195.486176,537.196045 
	C195.742126,537.120728 196.625153,536.860779 197.718201,536.376343 
	C200.688660,535.975220 203.449081,535.798584 206.599686,535.596985 
	C206.599686,538.026489 206.599686,539.927002 206.312836,542.156799 
	C203.640381,542.412598 201.254776,542.339111 198.510574,542.276855 
z"/>
<path fill="#294508" opacity="1.000000" stroke="none" 
	d="
M213.480133,450.042419 
	C214.583389,455.477356 212.925262,457.943420 206.953156,458.449036 
	C201.493851,458.911255 196.211777,461.466492 190.462311,463.110291 
	C190.221573,462.008667 189.977554,460.569916 190.585098,459.838928 
	C193.549988,456.271484 196.716492,452.868896 199.888138,449.479553 
	C200.266632,449.075043 201.111328,449.106812 202.153305,448.890289 
	C206.065033,449.193695 209.563400,449.543182 213.480133,450.042419 
z"/>
<path fill="#192D05" opacity="1.000000" stroke="none" 
	d="
M258.900696,465.153320 
	C257.222717,465.688477 255.498901,466.463409 254.146225,466.043304 
	C245.706253,463.421997 237.324890,460.602478 228.991791,457.657135 
	C227.783905,457.230225 226.938965,455.776459 225.833771,454.405212 
	C225.913422,452.731232 226.085373,451.449890 226.275269,450.034698 
	C229.375931,449.786865 232.312469,449.552124 235.632324,449.174103 
	C240.315613,456.619690 248.508987,456.603485 255.887146,458.997345 
	C257.380188,460.869995 262.147552,461.014893 258.900696,465.153320 
z"/>
<path fill="#091101" opacity="1.000000" stroke="none" 
	d="
M140.063629,543.136353 
	C140.072433,543.337402 139.831360,543.598938 139.317123,543.850891 
	C139.300583,543.626465 139.557175,543.411621 140.063629,543.136353 
z"/>
<path fill="#040800" opacity="1.000000" stroke="none" 
	d="
M258.755859,546.839722 
	C256.071381,556.812805 249.597733,562.176575 240.646317,566.253906 
	C233.368927,569.568726 226.210754,572.056335 218.340607,571.877869 
	C214.629578,571.793701 210.765427,570.856018 207.334946,569.429260 
	C205.775803,568.780884 204.132568,565.914490 204.290909,564.218994 
	C204.458405,562.425476 206.634445,559.449768 208.085205,559.356506 
	C223.784241,558.347473 233.916229,547.475098 245.213943,538.794983 
	C253.542603,532.395996 252.163300,517.803894 243.012436,510.593750 
	C237.555054,506.293762 232.649261,501.137787 226.758240,497.591278 
	C221.634354,494.506561 215.423904,493.266083 209.800186,490.951660 
	C207.727509,490.098724 205.959564,488.505341 204.052643,487.249664 
	C205.322266,485.328308 206.153183,482.637085 207.938065,481.619995 
	C215.348572,477.397156 223.568329,477.708069 230.973434,480.791229 
	C238.522751,483.934357 245.745209,488.308350 252.285934,493.237854 
	C255.503418,495.662811 257.100372,500.443298 258.987549,504.370758 
	C260.905365,508.362000 262.224945,512.636841 263.903015,516.748169 
	C265.977692,521.831055 266.825165,526.841858 264.489807,532.164185 
	C262.431152,536.855774 260.800110,541.735046 258.755859,546.839722 
z"/>
</svg>